<?xml version="1.0" encoding="utf-8"?>
<!-- Generator: Adobe Illustrator 16.0.0, SVG Export Plug-In . SVG Version: 6.00 Build 0)  -->
<!DOCTYPE svg PUBLIC "-//W3C//DTD SVG 1.1//EN" "http://www.w3.org/Graphics/SVG/1.1/DTD/svg11.dtd">
<svg version="1.1" id="Layer_1" xmlns="http://www.w3.org/2000/svg" xmlns:xlink="http://www.w3.org/1999/xlink" x="0px" y="0px"  viewBox="0 0 470.959 164.3" xml:space="preserve">
<g id="Full_2_">
	<rect x="214.659" y="130" style="fill:#4F4A4C;" width="20.3" height="34.301"/>
	<rect x="214.809" y="130.15" style="fill:#4F4A4C;" width="20" height="34"/>
	<path style="fill:#4F4A4C;" d="M124.659,130.3V0h200.3v130.3H124.659z M318.658,124V6.3h-187.7V124H318.658z"/>
	<path style="fill:#4F4A4C;" d="M124.809,0.15v130h200v-130H124.809z M318.809,124.15h-188v-118h188V124.15z"/>
	<g>
		<polygon style="fill:#4F4A4C;" points="282.509,160.3 284.233,158 287.384,158 289.108,160.3 		"/>
		<polygon style="fill:#4F4A4C;" points="282.809,160.15 284.309,158.15 287.309,158.15 288.809,160.15 		"/>
		<polygon style="fill:#4F4A4C;" points="276.509,160.3 278.233,158 281.384,158 283.108,160.3 		"/>
		<polygon style="fill:#4F4A4C;" points="276.809,160.15 278.309,158.15 281.309,158.15 282.809,160.15 		"/>
		<polygon style="fill:#4F4A4C;" points="270.509,160.3 272.233,158 275.384,158 277.108,160.3 		"/>
		<polygon style="fill:#4F4A4C;" points="270.809,160.15 272.309,158.15 275.309,158.15 276.809,160.15 		"/>
		<polygon style="fill:#4F4A4C;" points="264.509,160.3 266.233,158 270.384,158 272.108,160.3 		"/>
		<polygon style="fill:#4F4A4C;" points="264.809,160.15 266.309,158.15 270.309,158.15 271.809,160.15 		"/>
		<polygon style="fill:#4F4A4C;" points="258.509,160.3 260.233,158 264.384,158 266.108,160.3 		"/>
		<polygon style="fill:#4F4A4C;" points="258.809,160.15 260.309,158.15 264.309,158.15 265.809,160.15 		"/>
		<polygon style="fill:#4F4A4C;" points="240.509,160.3 242.233,158 245.384,158 247.108,160.3 		"/>
		<polygon style="fill:#4F4A4C;" points="240.809,160.15 242.309,158.15 245.309,158.15 246.809,160.15 		"/>
		<polygon style="fill:#4F4A4C;" points="234.509,160.3 236.233,158 239.384,158 241.108,160.3 		"/>
		<polygon style="fill:#4F4A4C;" points="234.809,160.15 236.309,158.15 239.309,158.15 240.809,160.15 		"/>
		<polygon style="fill:#4F4A4C;" points="228.509,160.3 230.233,158 233.384,158 235.108,160.3 		"/>
		<polygon style="fill:#4F4A4C;" points="228.809,160.15 230.309,158.15 233.309,158.15 234.809,160.15 		"/>
		<polygon style="fill:#4F4A4C;" points="222.509,160.3 224.233,158 227.384,158 229.108,160.3 		"/>
		<polygon style="fill:#4F4A4C;" points="222.809,160.15 224.309,158.15 227.309,158.15 228.809,160.15 		"/>
		<polygon style="fill:#4F4A4C;" points="216.509,160.3 218.233,158 221.384,158 223.108,160.3 		"/>
		<polygon style="fill:#4F4A4C;" points="216.809,160.15 218.309,158.15 221.309,158.15 222.809,160.15 		"/>
		<polygon style="fill:#4F4A4C;" points="210.509,160.3 212.233,158 215.384,158 217.108,160.3 		"/>
		<polygon style="fill:#4F4A4C;" points="210.809,160.15 212.309,158.15 215.309,158.15 216.809,160.15 		"/>
		<polygon style="fill:#4F4A4C;" points="204.509,160.3 206.233,158 209.384,158 211.108,160.3 		"/>
		<polygon style="fill:#4F4A4C;" points="204.809,160.15 206.309,158.15 209.309,158.15 210.809,160.15 		"/>
		<polygon style="fill:#4F4A4C;" points="198.509,160.3 200.233,158 203.384,158 205.108,160.3 		"/>
		<polygon style="fill:#4F4A4C;" points="198.809,160.15 200.309,158.15 203.309,158.15 204.809,160.15 		"/>
		<polygon style="fill:#4F4A4C;" points="192.509,160.3 194.233,158 197.384,158 199.108,160.3 		"/>
		<polygon style="fill:#4F4A4C;" points="192.809,160.15 194.309,158.15 197.309,158.15 198.809,160.15 		"/>
		<polygon style="fill:#4F4A4C;" points="186.509,160.3 188.233,158 191.384,158 193.108,160.3 		"/>
		<polygon style="fill:#4F4A4C;" points="186.809,160.15 188.309,158.15 191.309,158.15 192.809,160.15 		"/>
		<polygon style="fill:#4F4A4C;" points="180.509,160.3 182.233,158 185.384,158 187.108,160.3 		"/>
		<polygon style="fill:#4F4A4C;" points="180.809,160.15 182.309,158.15 185.309,158.15 186.809,160.15 		"/>
		<polygon style="fill:#4F4A4C;" points="174.509,160.3 176.233,158 179.384,158 181.108,160.3 		"/>
		<polygon style="fill:#4F4A4C;" points="174.809,160.15 176.309,158.15 179.309,158.15 180.809,160.15 		"/>
		<polygon style="fill:#4F4A4C;" points="168.509,160.3 170.233,158 173.384,158 175.108,160.3 		"/>
		<polygon style="fill:#4F4A4C;" points="168.809,160.15 170.309,158.15 173.309,158.15 174.809,160.15 		"/>
		<polygon style="fill:#4F4A4C;" points="162.509,160.3 164.233,158 167.384,158 169.108,160.3 		"/>
		<polygon style="fill:#4F4A4C;" points="162.809,160.15 164.309,158.15 167.309,158.15 168.809,160.15 		"/>
		<polygon style="fill:#4F4A4C;" points="156.509,160.3 158.233,158 161.384,158 163.108,160.3 		"/>
		<polygon style="fill:#4F4A4C;" points="156.809,160.15 158.309,158.15 161.309,158.15 162.809,160.15 		"/>
		<g>
			<path style="fill:#4F4A4C;" d="M146.659,164.3c-1.1,0-2-0.9-2-2V162c0-1.1,0.9-2,2-2h144.3c1.1,0,2,0.9,2,2v0.301
				c0,1.1-0.9,2-2,2H146.659z"/>
		</g>
		<g>
			<path style="fill:#4F4A4C;" d="M292.809,162.15c0,1.1-0.9,2-2,2h-144c-1.1,0-2-0.9-2-2l0,0c0-1.1,0.9-2,2-2h144
				C291.908,160.15,292.809,161.05,292.809,162.15L292.809,162.15z"/>
		</g>
		<polygon style="fill:#605F60;" points="158.509,160.3 160.233,158 163.384,158 165.108,160.3 		"/>
		<polygon style="fill:#605F60;" points="158.809,160.15 160.309,158.15 163.309,158.15 164.809,160.15 		"/>
		<polygon style="fill:#605F60;" points="164.509,160.3 166.233,158 169.384,158 171.108,160.3 		"/>
		<polygon style="fill:#605F60;" points="164.809,160.15 166.309,158.15 169.309,158.15 170.809,160.15 		"/>
		<polygon style="fill:#605F60;" points="170.509,160.3 172.233,158 175.384,158 177.108,160.3 		"/>
		<polygon style="fill:#605F60;" points="170.809,160.15 172.309,158.15 175.309,158.15 176.809,160.15 		"/>
		<polygon style="fill:#605F60;" points="176.509,160.3 178.233,158 181.384,158 183.108,160.3 		"/>
		<polygon style="fill:#605F60;" points="176.809,160.15 178.309,158.15 181.309,158.15 182.809,160.15 		"/>
		<polygon style="fill:#605F60;" points="182.509,160.3 184.233,158 187.384,158 189.108,160.3 		"/>
		<polygon style="fill:#605F60;" points="182.809,160.15 184.309,158.15 187.309,158.15 188.809,160.15 		"/>
		<polygon style="fill:#605F60;" points="188.509,160.3 190.233,158 193.384,158 195.108,160.3 		"/>
		<polygon style="fill:#605F60;" points="188.809,160.15 190.309,158.15 193.309,158.15 194.809,160.15 		"/>
		<polygon style="fill:#605F60;" points="194.509,160.3 196.233,158 199.384,158 201.108,160.3 		"/>
		<polygon style="fill:#605F60;" points="194.809,160.15 196.309,158.15 199.309,158.15 200.809,160.15 		"/>
		<polygon style="fill:#605F60;" points="200.509,160.3 202.233,158 205.384,158 207.108,160.3 		"/>
		<polygon style="fill:#605F60;" points="200.809,160.15 202.309,158.15 205.309,158.15 206.809,160.15 		"/>
		<polygon style="fill:#605F60;" points="206.509,160.3 208.233,158 211.384,158 213.108,160.3 		"/>
		<polygon style="fill:#605F60;" points="206.809,160.15 208.309,158.15 211.309,158.15 212.809,160.15 		"/>
		<polygon style="fill:#605F60;" points="212.509,160.3 214.233,158 217.384,158 219.108,160.3 		"/>
		<polygon style="fill:#605F60;" points="212.809,160.15 214.309,158.15 217.309,158.15 218.809,160.15 		"/>
		<polygon style="fill:#605F60;" points="218.509,160.3 220.233,158 223.384,158 225.108,160.3 		"/>
		<polygon style="fill:#605F60;" points="218.809,160.15 220.309,158.15 223.309,158.15 224.809,160.15 		"/>
		<polygon style="fill:#605F60;" points="224.509,160.3 226.233,158 229.384,158 231.108,160.3 		"/>
		<polygon style="fill:#605F60;" points="224.809,160.15 226.309,158.15 229.309,158.15 230.809,160.15 		"/>
		<polygon style="fill:#605F60;" points="230.509,160.3 232.233,158 235.384,158 237.108,160.3 		"/>
		<polygon style="fill:#605F60;" points="230.809,160.15 232.309,158.15 235.309,158.15 236.809,160.15 		"/>
		<polygon style="fill:#605F60;" points="236.509,160.3 238.233,158 241.384,158 243.108,160.3 		"/>
		<polygon style="fill:#605F60;" points="236.809,160.15 238.309,158.15 241.309,158.15 242.809,160.15 		"/>
		<polygon style="fill:#605F60;" points="242.509,160.3 244.233,158 247.384,158 249.108,160.3 		"/>
		<polygon style="fill:#605F60;" points="242.809,160.15 244.309,158.15 247.309,158.15 248.809,160.15 		"/>
		<polygon style="fill:#605F60;" points="254.509,160.3 256.233,158 259.384,158 261.108,160.3 		"/>
		<polygon style="fill:#605F60;" points="254.809,160.15 256.309,158.15 259.309,158.15 260.809,160.15 		"/>
		<polygon style="fill:#605F60;" points="260.509,160.3 262.233,158 265.384,158 267.108,160.3 		"/>
		<polygon style="fill:#605F60;" points="260.809,160.15 262.309,158.15 265.309,158.15 266.809,160.15 		"/>
		<polygon style="fill:#605F60;" points="266.509,160.3 268.233,158 271.384,158 273.108,160.3 		"/>
		<polygon style="fill:#605F60;" points="266.809,160.15 268.309,158.15 271.309,158.15 272.809,160.15 		"/>
		<polygon style="fill:#605F60;" points="272.509,160.3 274.233,158 277.384,158 279.108,160.3 		"/>
		<polygon style="fill:#605F60;" points="272.809,160.15 274.309,158.15 277.309,158.15 278.809,160.15 		"/>
		<polygon style="fill:#605F60;" points="278.509,160.3 280.233,158 283.384,158 285.108,160.3 		"/>
		<polygon style="fill:#605F60;" points="278.809,160.15 280.309,158.15 283.309,158.15 284.809,160.15 		"/>
		<polygon style="fill:#605F60;" points="284.509,160.3 286.233,158 289.384,158 291.108,160.3 		"/>
		<polygon style="fill:#605F60;" points="284.809,160.15 286.309,158.15 289.309,158.15 290.809,160.15 		"/>
		<polygon style="fill:#4F4A4C;" points="150.509,160.3 152.233,158 155.384,158 157.108,160.3 		"/>
		<polygon style="fill:#4F4A4C;" points="150.809,160.15 152.309,158.15 155.309,158.15 156.809,160.15 		"/>
		<polygon style="fill:#605F60;" points="152.509,160.3 154.233,158 157.384,158 159.108,160.3 		"/>
		<polygon style="fill:#605F60;" points="152.809,160.15 154.309,158.15 157.309,158.15 158.809,160.15 		"/>
		<polygon style="fill:#605F60;" points="146.509,160.3 148.233,158 151.384,158 153.108,160.3 		"/>
		<polygon style="fill:#605F60;" points="146.809,160.15 148.309,158.15 151.309,158.15 152.809,160.15 		"/>
	</g>
	<rect x="144.659" y="162" style="fill:#4F4A4C;" width="148.3" height="2.301"/>
	<rect x="144.809" y="162.15" style="fill:#4F4A4C;" width="148" height="2"/>
	<polygon style="fill:#423F40;" points="214.659,136.261 214.659,130 234.959,130 234.959,142.351 	"/>
	<polygon style="fill:#423F40;" points="214.809,130.15 214.809,136.15 234.809,142.15 234.809,130.15 	"/>
	<rect x="130.659" y="6" style="fill:#3B96BA;" width="188.3" height="118.3"/>
	<rect x="130.809" y="6.15" style="fill:#3B96BA;" width="188" height="118"/>
	<rect x="132.659" y="116" style="fill:#4C4C4C;" width="186.3" height="8.301"/>
	<rect x="132.809" y="116.15" style="fill:#4C4C4C;" width="186" height="8"/>
	<rect x="130.659" y="116" style="fill:#4C4C4C;" width="10.3" height="8.301"/>
	<rect x="130.809" y="116.15" style="fill:#4C4C4C;" width="10" height="8"/>
	<rect x="138.659" y="116" style="fill:#605F60;" width="48.3" height="8.301"/>
	<rect x="138.809" y="116.15" style="fill:#605F60;" width="48" height="8"/>
	<rect x="130.659" y="122" style="fill:#423F40;" width="188.3" height="2.301"/>
	<rect x="130.809" y="122.15" style="fill:#423F40;" width="188" height="2"/>
	<g>
		<polygon style="fill:#FFFAFF;" points="134.398,119.159 134.398,117.788 136.292,117.472 136.292,119.159 		"/>
		<polygon style="fill:#FFFAFF;" points="134.548,119.008 136.142,119.008 136.142,117.649 134.548,117.915 		"/>
		<polygon style="fill:#FFFAFF;" points="132.992,119.159 132.992,118.022 134.511,117.769 134.511,119.159 		"/>
		<polygon style="fill:#FFFAFF;" points="134.361,119.008 134.361,117.946 133.142,118.149 133.142,119.008 		"/>
		<polygon style="fill:#FFFAFF;" points="134.398,120.51 134.398,119.045 136.292,119.045 136.292,120.826 		"/>
		<polygon style="fill:#FFFAFF;" points="134.548,119.196 134.548,120.383 136.142,120.649 136.142,119.196 		"/>
		<polygon style="fill:#FFFAFF;" points="132.992,120.276 132.992,119.045 134.511,119.045 134.511,120.529 		"/>
		<polygon style="fill:#FFFAFF;" points="134.361,119.196 133.142,119.196 133.142,120.149 134.361,120.352 		"/>
	</g>
	<rect x="130.659" y="6" style="fill:#423F40;" width="188.3" height="2.3"/>
	<rect x="130.809" y="6.15" style="fill:#423F40;" width="188" height="2"/>
	<circle style="opacity:0.75;fill:#A0BD49;" cx="190.934" cy="119.192" r="2.15"/>
	<circle style="opacity:0.75;fill:#A0BD49;" cx="190.934" cy="119.192" r="2"/>
	<circle style="opacity:0.75;fill:#3DBDEE;" cx="197.309" cy="119.192" r="2.15"/>
	<circle style="opacity:0.75;fill:#3DBDEE;" cx="197.309" cy="119.192" r="2"/>
	<circle style="opacity:0.75;fill:#F49600;" cx="203.6" cy="119.192" r="2.15"/>
	<circle style="opacity:0.75;fill:#F49600;" cx="203.6" cy="119.192" r="2"/>
	<circle style="opacity:0.75;fill:#F5F5F5;" cx="209.871" cy="119.192" r="2.15"/>
	<circle style="opacity:0.75;fill:#F5F5F5;" cx="209.871" cy="119.192" r="2"/>
	<circle style="opacity:0.75;fill:#575E94;" cx="216.246" cy="119.192" r="2.15"/>
	<circle style="opacity:0.75;fill:#575E94;" cx="216.246" cy="119.192" r="2"/>
	<circle style="opacity:0.75;fill:#ED7459;" cx="222.537" cy="119.192" r="2.15"/>
	<circle style="opacity:0.75;fill:#ED7459;" cx="222.537" cy="119.192" r="2"/>
	<g>
		<path style="fill:#3F3C3D;" d="M325.409,164.3l0.055-0.191c0.233-0.813,0.351-1.641,0.351-2.459v-0.125l0.122-0.038
			c2.562-0.472,4.308-1.229,4.669-2.029l0.284,0.091l-0.736,3.65c-0.122,0.607-0.726,1.102-1.345,1.102H325.409z"/>
		<path style="fill:#3F3C3D;" d="M325.964,161.634c0,0.006,0.001,0.011,0.001,0.016c0,0.868-0.129,1.705-0.356,2.5h3.2
			c0.55,0,1.089-0.441,1.197-0.98l0.736-3.65C330.344,160.4,328.539,161.161,325.964,161.634z"/>
		<path style="fill:#605F60;" d="M330.595,159.49l0.078-0.389l0.297-0.041c0.015,0.224-0.021,0.364-0.091,0.521L330.595,159.49z"/>
		<path style="fill:#605F60;" d="M330.82,159.072c-0.003,0.021,0.004,0.038,0,0.059l-0.078,0.389
			c0.055-0.121,0.092-0.244,0.092-0.369C330.834,159.125,330.822,159.097,330.82,159.072z"/>
		<path style="fill:#565656;" d="M325.813,161.634c-0.002-1.186-0.232-2.339-0.688-3.427c-0.406-0.974-0.989-1.87-1.732-2.664
			l-0.299-0.319l0.432,0.068c3.137,0.498,5.873,1.61,6.973,2.834c0.285,0.317,0.443,0.631,0.471,0.932l-0.002,0.101l-0.078,0.39
			c-0.425,0.948-2.161,1.729-4.898,2.233l-0.177,0.032L325.813,161.634z"/>
		<path style="fill:#565656;" d="M330.82,159.072c-0.024-0.27-0.172-0.555-0.433-0.845c-0.99-1.103-3.572-2.261-6.885-2.786
			c0.736,0.787,1.34,1.699,1.762,2.709c0.448,1.073,0.697,2.25,0.699,3.484c2.575-0.474,4.38-1.234,4.778-2.115l0.078-0.389
			C330.824,159.11,330.817,159.092,330.82,159.072z"/>
		<path style="fill:#4F4A4C;" d="M310.809,164.3c-0.619,0-1.223-0.494-1.345-1.102l-0.734-3.647l0.284-0.092
			c0.647,1.425,5.39,2.54,10.795,2.54c2.189,0,4.308-0.177,6.128-0.513l0.178-0.033v0.181c0.001,0.862-0.121,1.717-0.361,2.557
			l-0.031,0.109H310.809z"/>
		<path style="fill:#4F4A4C;" d="M325.964,161.634c-1.758,0.324-3.872,0.516-6.155,0.516c-5.625,0-10.258-1.146-10.932-2.628
			l0.734,3.647c0.108,0.539,0.647,0.98,1.197,0.98h14.8c0.228-0.795,0.356-1.632,0.356-2.5
			C325.965,161.645,325.964,161.64,325.964,161.634z"/>
		<polygon style="fill:#4F4A4C;" points="308.729,159.551 308.646,159.138 308.648,159.082 308.946,159.046 308.946,159.11 
			309.024,159.493 		"/>
		<path style="fill:#4F4A4C;" d="M308.877,159.522l-0.079-0.392c-0.005-0.022,0.003-0.042,0-0.064"/>
		<path style="fill:#605F60;" d="M319.809,162.3c-5.697,0-10.353-1.143-11.068-2.716l-0.092-0.441v-0.092
			c0.029-0.3,0.188-0.61,0.47-0.925c1.36-1.516,5.569-3.127,10.69-3.127c1.244,0,2.495,0.099,3.718,0.293
			c0.854,0.866,1.456,1.793,1.877,2.8c0.47,1.124,0.709,2.316,0.711,3.542v0.125l-0.123,0.022
			C324.153,162.121,322.016,162.3,319.809,162.3z"/>
		<path style="fill:#605F60;" d="M319.809,162.15c2.283,0,4.397-0.191,6.155-0.516c-0.002-1.234-0.251-2.411-0.699-3.484
			c-0.422-1.01-1.025-1.922-1.762-2.709c-1.155-0.184-2.397-0.291-3.694-0.291c-5.017,0-9.244,1.59-10.579,3.077
			c-0.259,0.288-0.405,0.571-0.432,0.839c0.003,0.022-0.005,0.042,0,0.064l0.079,0.392
			C309.551,161.003,314.184,162.15,319.809,162.15z"/>
	</g>
	<g>
		<polygon style="fill:#939393;" points="266.658,102.3 266.658,40.3 166.958,40.3 166.958,102.3 152.659,102.3 152.659,30 
			280.959,30 280.959,102.3 		"/>
		<polygon style="fill:#939393;" points="280.809,96.15 280.809,90.65 280.809,90.15 280.809,84.65 280.809,84.15 280.809,78.15 
			280.809,76.15 280.809,64.65 280.809,64.15 280.809,62.15 280.809,61.65 280.809,60.15 280.809,59.65 280.809,58.15 
			280.809,57.65 280.809,56.15 280.809,54.15 280.809,30.15 152.809,30.15 152.809,102.15 166.809,102.15 166.809,90.15 
			166.809,48.15 166.809,40.15 266.809,40.15 266.809,48.15 266.809,90.15 266.809,102.15 280.809,102.15 280.809,96.65 		"/>
		<rect x="144.659" y="22" style="fill:#D6D6D6;" width="160.3" height="6.3"/>
		<polygon style="fill:#D6D6D6;" points="144.809,22.15 144.809,28.15 152.809,28.15 304.809,28.15 304.809,22.15 		"/>
		<rect x="144.659" y="30" style="fill:#D6D6D6;" width="8.3" height="72.3"/>
		<rect x="144.809" y="30.15" style="fill:#D6D6D6;" width="8" height="72"/>
		<rect x="144.659" y="28" style="fill:#BFBFBF;" width="160.3" height="2.3"/>
		<polygon style="fill:#BFBFBF;" points="144.809,28.15 144.809,30.15 152.809,30.15 280.809,30.15 304.809,30.15 304.809,28.15 
			152.809,28.15 		"/>
		<rect x="280.658" y="64.5" style="fill:#D6D6D6;" width="24.301" height="11.8"/>
		<rect x="280.809" y="64.65" style="fill:#D6D6D6;" width="24" height="11.5"/>
		<rect x="280.658" y="58" style="fill:#D6D6D6;" width="24.301" height="1.8"/>
		<rect x="280.809" y="58.15" style="fill:#D6D6D6;" width="24" height="1.5"/>
		<path style="fill:#D6D6D6;" d="M280.658,84.3V78h24.301V84.3H280.658z M284.658,82V80.3h-1.699V82H284.658z M300.658,81.5V80.8
			h-13.699V81.5H300.658z"/>
		<path style="fill:#D6D6D6;" d="M280.809,84.15h24v-6h-24V84.15z M286.809,80.65h14v1h-14V80.65z M282.809,80.15h2v2h-2V80.15z"/>
		<rect x="280.658" y="56" style="fill:#D6D6D6;" width="24.301" height="1.8"/>
		<rect x="280.809" y="56.15" style="fill:#D6D6D6;" width="24" height="1.5"/>
		<path style="fill:#D6D6D6;" d="M280.658,96.3V90.5h24.301V96.3H280.658z M284.658,94.299V92.6h-1.699v1.699H284.658z
			 M300.658,93.799V93.1h-13.699v0.699H300.658z"/>
		<path style="fill:#D6D6D6;" d="M280.809,96.15h24v-5.5h-24V96.15z M286.809,92.95h14v1h-14V92.95z M282.809,92.45h2v2h-2V92.45z"
			/>
		<rect x="280.658" y="60" style="fill:#D6D6D6;" width="24.301" height="1.8"/>
		<rect x="280.809" y="60.15" style="fill:#D6D6D6;" width="24" height="1.5"/>
		<path style="fill:#D6D6D6;" d="M280.658,102.3V96.5h24.301v5.801H280.658z M284.658,100.299V98.6h-1.699v1.699H284.658z
			 M300.658,99.799V99.1h-13.699v0.699H300.658z"/>
		<path style="fill:#D6D6D6;" d="M280.809,102.15h24v-5.5h-24V102.15z M286.809,98.95h14v1h-14V98.95z M282.809,98.45h2v2h-2V98.45z
			"/>
		<rect x="280.658" y="62" style="fill:#D6D6D6;" width="24.301" height="2.3"/>
		<rect x="280.809" y="62.15" style="fill:#D6D6D6;" width="24" height="2"/>
		<path style="fill:#D6D6D6;" d="M280.658,90.3V84.5h24.301V90.3H280.658z M284.658,88.299V86.6h-1.699v1.699H284.658z
			 M300.658,87.799V87.1h-13.699v0.699H300.658z"/>
		<path style="fill:#D6D6D6;" d="M280.809,90.15h24v-5.5h-24V90.15z M286.809,86.95h14v1h-14V86.95z M282.809,86.45h2v2h-2V86.45z"
			/>
		<path style="fill:#D6D6D6;" d="M280.658,54.3V30h24.301v24.3H280.658z M300.658,50v-3.7h-3.699V50H300.658z M294.658,50v-3.7
			h-3.699V50H294.658z M288.658,50v-3.7h-3.699V50H288.658z M300.658,44v-3.7h-3.699V44H300.658z M294.658,44v-3.7h-3.699V44
			H294.658z M288.658,44v-3.7h-3.699V44H288.658z M300.658,38v-3.7h-3.699V38H300.658z M294.658,38v-3.7h-3.699V38H294.658z
			 M288.658,38v-3.7h-3.699V38H288.658z"/>
		<path style="fill:#D6D6D6;" d="M280.809,54.15h24v-24h-24V54.15z M296.809,34.15h4v4h-4V34.15z M296.809,40.15h4v4h-4V40.15z
			 M296.809,46.15h4v4h-4V46.15z M290.809,34.15h4v4h-4V34.15z M290.809,40.15h4v4h-4V40.15z M290.809,46.15h4v4h-4V46.15z
			 M284.809,34.15h4v4h-4V34.15z M284.809,40.15h4v4h-4V40.15z M284.809,46.15h4v4h-4V46.15z"/>
		<rect x="280.658" y="54" style="fill:#BFBFBF;" width="24.301" height="2.3"/>
		<rect x="280.809" y="54.15" style="fill:#BFBFBF;" width="24" height="2"/>
		<rect x="280.658" y="76" style="fill:#BFBFBF;" width="24.301" height="2.301"/>
		<rect x="280.809" y="76.15" style="fill:#BFBFBF;" width="24" height="2"/>
		<rect x="280.658" y="84" style="fill:#BFBFBF;" width="24.301" height="0.801"/>
		<rect x="280.809" y="84.15" style="fill:#BFBFBF;" width="24" height="0.5"/>
		<rect x="280.658" y="64" style="fill:#BFBFBF;" width="24.301" height="0.8"/>
		<rect x="280.809" y="64.15" style="fill:#BFBFBF;" width="24" height="0.5"/>
		<rect x="280.658" y="57.5" style="fill:#BFBFBF;" width="24.301" height="0.8"/>
		<rect x="280.809" y="57.65" style="fill:#BFBFBF;" width="24" height="0.5"/>
		<rect x="280.658" y="59.5" style="fill:#BFBFBF;" width="24.301" height="0.8"/>
		<rect x="280.809" y="59.65" style="fill:#BFBFBF;" width="24" height="0.5"/>
		<rect x="280.658" y="61.5" style="fill:#BFBFBF;" width="24.301" height="0.8"/>
		<rect x="280.809" y="61.65" style="fill:#BFBFBF;" width="24" height="0.5"/>
		<rect x="280.658" y="90" style="fill:#BFBFBF;" width="24.301" height="0.801"/>
		<rect x="280.809" y="90.15" style="fill:#BFBFBF;" width="24" height="0.5"/>
		<rect x="280.658" y="96" style="fill:#BFBFBF;" width="24.301" height="0.801"/>
		<rect x="280.809" y="96.15" style="fill:#BFBFBF;" width="24" height="0.5"/>
		<rect x="282.658" y="86.299" style="fill:#BFBFBF;" width="2.301" height="2.301"/>
		<rect x="282.809" y="86.45" style="fill:#BFBFBF;" width="2" height="2"/>
		<rect x="282.658" y="80" style="fill:#BFBFBF;" width="2.301" height="2.301"/>
		<rect x="282.809" y="80.15" style="fill:#BFBFBF;" width="2" height="2"/>
		<rect x="282.658" y="92.299" style="fill:#BFBFBF;" width="2.301" height="2.301"/>
		<rect x="282.809" y="92.45" style="fill:#BFBFBF;" width="2" height="2"/>
		<rect x="282.658" y="98.299" style="fill:#BFBFBF;" width="2.301" height="2.301"/>
		<rect x="282.809" y="98.45" style="fill:#BFBFBF;" width="2" height="2"/>
		<rect x="286.658" y="80.5" style="fill:#BFBFBF;" width="14.301" height="1.301"/>
		<rect x="286.809" y="80.65" style="fill:#BFBFBF;" width="14" height="1"/>
		<rect x="286.658" y="86.799" style="fill:#BFBFBF;" width="14.301" height="1.301"/>
		<rect x="286.809" y="86.95" style="fill:#BFBFBF;" width="14" height="1"/>
		<rect x="286.658" y="92.799" style="fill:#BFBFBF;" width="14.301" height="1.301"/>
		<rect x="286.809" y="92.95" style="fill:#BFBFBF;" width="14" height="1"/>
		<rect x="286.658" y="98.799" style="fill:#BFBFBF;" width="14.301" height="1.301"/>
		<rect x="286.809" y="98.95" style="fill:#BFBFBF;" width="14" height="1"/>
		<rect x="284.658" y="34" style="fill:#BFBFBF;" width="4.301" height="4.3"/>
		<rect x="284.809" y="34.15" style="fill:#BFBFBF;" width="4" height="4"/>
		<rect x="290.658" y="34" style="fill:#BFBFBF;" width="4.301" height="4.3"/>
		<rect x="290.809" y="34.15" style="fill:#BFBFBF;" width="4" height="4"/>
		<rect x="296.658" y="34" style="fill:#BFBFBF;" width="4.301" height="4.3"/>
		<rect x="296.809" y="34.15" style="fill:#BFBFBF;" width="4" height="4"/>
		<rect x="296.658" y="40" style="fill:#BFBFBF;" width="4.301" height="4.3"/>
		<rect x="296.809" y="40.15" style="fill:#BFBFBF;" width="4" height="4"/>
		<rect x="296.658" y="46" style="fill:#BFBFBF;" width="4.301" height="4.3"/>
		<rect x="296.809" y="46.15" style="fill:#BFBFBF;" width="4" height="4"/>
		<rect x="284.658" y="40" style="fill:#BFBFBF;" width="4.301" height="4.3"/>
		<rect x="284.809" y="40.15" style="fill:#BFBFBF;" width="4" height="4"/>
		<rect x="284.658" y="46" style="fill:#BFBFBF;" width="4.301" height="4.3"/>
		<rect x="284.809" y="46.15" style="fill:#BFBFBF;" width="4" height="4"/>
		<rect x="290.658" y="40" style="fill:#BFBFBF;" width="4.301" height="4.3"/>
		<rect x="290.809" y="40.15" style="fill:#BFBFBF;" width="4" height="4"/>
		<rect x="290.658" y="46" style="fill:#BFBFBF;" width="4.301" height="4.3"/>
		<rect x="290.809" y="46.15" style="fill:#BFBFBF;" width="4" height="4"/>
		<path style="fill:#FFFFFF;" d="M260.523,90.3l0.037-0.181c0.064-0.318,0.098-0.645,0.098-0.97v-30c0-2.674-2.176-4.85-4.85-4.85
			h-38c-2.674,0-4.85,2.176-4.85,4.85v30c0,0.325,0.033,0.651,0.099,0.97l0.037,0.181h-46.436V48h100.3v42.3H260.523z M190.398,82
			V78.3h-17.439V82H190.398z M200.746,74V70.3h-27.787V74H200.746z M194.833,66v-3.7h-21.874V66H194.833z M206.659,58v-3.7h-33.7V58
			H206.659z"/>
		<path style="fill:#FFFFFF;" d="M212.809,89.15v-30c0-2.75,2.25-5,5-5h38c2.75,0,5,2.25,5,5v30c0,0.342-0.035,0.677-0.102,1h6.102
			v-42h-100v42h46.102C212.844,89.827,212.809,89.492,212.809,89.15z M172.809,62.15h22.174v4h-22.174V62.15z M190.548,82.15
			h-17.739v-4h17.739V82.15z M200.896,74.15h-28.087v-4h28.087V74.15z M206.809,58.15h-34v-4h34V58.15z"/>
		<path style="fill:#ED7459;" d="M260.523,90.3l0.037-0.181c0.064-0.318,0.098-0.645,0.098-0.97v-30c0-2.674-2.176-4.85-4.85-4.85
			h-38c-2.674,0-4.85,2.176-4.85,4.85v30c0,0.325,0.033,0.651,0.099,0.97l0.037,0.181h-46.436V48h100.3v42.3H260.523z M190.398,82
			V78.3h-17.439V82H190.398z M200.746,74V70.3h-27.787V74H200.746z M194.833,66v-3.7h-21.874V66H194.833z M206.659,58v-3.7h-33.7V58
			H206.659z"/>
		<path style="opacity:0.75;fill:#ED7459;" d="M212.809,89.15v-30c0-2.75,2.25-5,5-5h38c2.75,0,5,2.25,5,5v30
			c0,0.342-0.035,0.677-0.102,1h6.102v-42h-100v42h46.102C212.844,89.827,212.809,89.492,212.809,89.15z M172.809,62.15h22.174v4
			h-22.174V62.15z M190.548,82.15h-17.739v-4h17.739V82.15z M200.896,74.15h-28.087v-4h28.087V74.15z M206.809,58.15h-34v-4h34
			V58.15z"/>
		<path style="fill:#ED7459;" d="M166.659,48.3V40h100.3v8.3H166.659z M194.833,46v-3.7h-21.874V46H194.833z"/>
		<path style="fill:#ED7459;" d="M266.809,40.15h-100v8h100V40.15z M194.982,46.15h-22.174v-4h22.174V46.15z"/>
		<rect x="172.659" y="54" style="fill:#FFFFFF;" width="34.3" height="4.3"/>
		<rect x="172.809" y="54.15" style="fill:#FFFFFF;" width="34" height="4"/>
		<rect x="172.659" y="62" style="fill:#FFFFFF;" width="22.474" height="4.3"/>
		<rect x="172.809" y="62.15" style="fill:#FFFFFF;" width="22.174" height="4"/>
		<rect x="172.659" y="42" style="fill:#ED7459;" width="22.474" height="4.3"/>
		<rect x="172.809" y="42.15" style="fill:#ED7459;" width="22.174" height="4"/>
		<rect x="172.659" y="42" style="opacity:0.75;fill:#EAA296;" width="22.474" height="4.3"/>
		<rect x="172.809" y="42.15" style="opacity:0.75;fill:#EAA296;" width="22.174" height="4"/>
		<rect x="172.659" y="70" style="fill:#FFFFFF;" width="28.387" height="4.301"/>
		<rect x="172.809" y="70.15" style="fill:#FFFFFF;" width="28.087" height="4"/>
		<rect x="172.659" y="78" style="fill:#FFFFFF;" width="18.039" height="4.301"/>
		<rect x="172.809" y="78.15" style="fill:#FFFFFF;" width="17.739" height="4"/>
		<path style="fill:#231F20;" d="M256.658,90.3v-12h-10.226v12h-3.774v-12h-10.226v12h-5.248v-12h-10.226v12h-3.123l-0.029-0.112
			c-0.101-0.385-0.147-0.715-0.147-1.038v-30c0-2.288,1.862-4.15,4.15-4.15h38c2.288,0,4.15,1.862,4.15,4.15v30
			c0,0.321-0.047,0.651-0.146,1.037l-0.029,0.113H256.658z M256.658,74V60.3h-10.226V74H256.658z M242.658,74V60.3h-10.226V74
			H242.658z M227.185,74V60.3h-10.226V74H227.185z"/>
		<path style="fill:#231F20;" d="M216.809,88.15v-10h10.526v10v2h4.947v-2v-10h10.526v10v2h3.474v-2v-10h10.526v10v2h2.858
			c0.083-0.321,0.142-0.652,0.142-1v-30c0-2.206-1.794-4-4-4h-38c-2.205,0-4,1.794-4,4v30c0,0.348,0.059,0.679,0.143,1h2.857V88.15z
			 M246.282,70.15v-10h10.526v10v4h-10.526V70.15z M232.282,70.15v-10h10.526v10v4h-10.526V70.15z M216.809,70.15v-10h10.526v10v4
			h-10.526V70.15z"/>
		<path style="fill:#FFFFFF;" d="M216.659,70.3V60h10.827v10.3H216.659z M222.059,62.384c-1.571,0-2.85,1.279-2.85,2.85
			s1.279,2.85,2.85,2.85s2.85-1.279,2.85-2.85S223.63,62.384,222.059,62.384z"/>
		<path style="fill:#FFFFFF;" d="M227.335,60.15h-10.526v10h10.526V60.15z M222.059,68.234c-1.656,0-3-1.344-3-3
			c0-1.657,1.344-3,3-3s3,1.343,3,3C225.059,66.89,223.715,68.234,222.059,68.234z"/>
		<rect x="216.659" y="70" style="fill:#231F20;" width="10.827" height="4.301"/>
		<rect x="216.809" y="70.15" style="fill:#231F20;" width="10.526" height="4"/>
		<rect x="216.659" y="70" style="opacity:0.75;fill:#A0BD49;" width="10.827" height="4.301"/>
		<rect x="216.809" y="70.15" style="opacity:0.75;fill:#A0BD49;" width="10.526" height="4"/>
		<path style="fill:#A0BD49;" d="M222.059,68.384c-1.737,0-3.15-1.413-3.15-3.15s1.413-3.15,3.15-3.15s3.15,1.413,3.15,3.15
			S223.795,68.384,222.059,68.384z"/>
		<circle style="fill:#A0BD49;" cx="222.059" cy="65.234" r="3"/>
		<path style="fill:#FFFFFF;" d="M232.132,70.3V60h10.827v10.3H232.132z M241.158,67.418v-1.534h-7.199v1.534H241.158z
			 M241.158,64.417v-1.533h-7.199v1.533H241.158z"/>
		<path style="fill:#FFFFFF;" d="M242.809,60.15h-10.526v10h10.526V60.15z M241.309,67.568h-7.5v-1.834h7.5V67.568z M241.309,64.567
			h-7.5v-1.833h7.5V64.567z"/>
		<rect x="232.132" y="70" style="fill:#231F20;" width="10.827" height="4.301"/>
		<rect x="232.282" y="70.15" style="fill:#231F20;" width="10.526" height="4"/>
		<rect x="232.132" y="70" style="opacity:0.75;fill:#F49600;" width="10.827" height="4.301"/>
		<rect x="232.282" y="70.15" style="opacity:0.75;fill:#F49600;" width="10.526" height="4"/>
		<path style="fill:#FFFFFF;" d="M246.132,70.3V60h10.827v10.3H246.132z M255.158,67.417v-4.533h-7.157v4.533H255.158z"/>
		<path style="fill:#FFFFFF;" d="M256.809,60.15h-10.526v10h10.526V60.15z M255.309,67.567h-7.458v-4.833h7.458V67.567z"/>
		<rect x="246.132" y="70" style="fill:#231F20;" width="10.827" height="4.301"/>
		<rect x="246.282" y="70.15" style="fill:#231F20;" width="10.526" height="4"/>
		<rect x="246.132" y="70" style="opacity:0.75;fill:#3DBDEE;" width="10.827" height="4.301"/>
		<rect x="246.282" y="70.15" style="opacity:0.75;fill:#3DBDEE;" width="10.526" height="4"/>
		<path style="fill:#FFFFFF;" d="M216.659,88.3V78h10.827V88.3H216.659z M222.059,80.384c-1.571,0-2.85,1.278-2.85,2.85
			s1.279,2.85,2.85,2.85s2.85-1.278,2.85-2.85S223.63,80.384,222.059,80.384z"/>
		<path style="fill:#FFFFFF;" d="M227.335,78.15h-10.526v10h10.526V78.15z M222.059,86.234c-1.656,0-3-1.344-3-3
			c0-1.657,1.344-3,3-3s3,1.343,3,3C225.059,84.89,223.715,86.234,222.059,86.234z"/>
		<rect x="216.659" y="88" style="fill:#231F20;" width="10.827" height="2.301"/>
		<rect x="216.809" y="88.15" style="fill:#231F20;" width="10.526" height="2"/>
		<rect x="216.659" y="88" style="opacity:0.75;fill:#F5F5F5;" width="10.827" height="2.301"/>
		<rect x="216.809" y="88.15" style="opacity:0.75;fill:#F5F5F5;" width="10.526" height="2"/>
		<path style="fill:#FFFFFF;" d="M222.059,86.384c-1.737,0-3.15-1.413-3.15-3.15s1.413-3.15,3.15-3.15s3.15,1.413,3.15,3.15
			S223.795,86.384,222.059,86.384z"/>
		<circle style="fill:#FFFFFF;" cx="222.059" cy="83.234" r="3"/>
		<path style="opacity:0.75;fill:#A7A9AC;" d="M222.059,86.384c-1.737,0-3.15-1.413-3.15-3.15s1.413-3.15,3.15-3.15
			s3.15,1.413,3.15,3.15S223.795,86.384,222.059,86.384z"/>
		<circle style="opacity:0.75;fill:#A7A9AC;" cx="222.059" cy="83.234" r="3"/>
		<path style="fill:#FFFFFF;" d="M232.132,88.3V78h10.827V88.3H232.132z M237.532,80.384c-1.571,0-2.85,1.278-2.85,2.85
			s1.278,2.85,2.85,2.85s2.85-1.278,2.85-2.85S239.104,80.384,237.532,80.384z"/>
		<path style="fill:#FFFFFF;" d="M242.809,78.15h-10.526v10h10.526V78.15z M237.532,86.234c-1.657,0-3-1.344-3-3
			c0-1.657,1.343-3,3-3c1.656,0,3,1.343,3,3C240.532,84.89,239.188,86.234,237.532,86.234z"/>
		<rect x="232.132" y="88" style="fill:#231F20;" width="10.827" height="2.301"/>
		<rect x="232.282" y="88.15" style="fill:#231F20;" width="10.526" height="2"/>
		<rect x="232.132" y="88" style="opacity:0.75;fill:#575E94;" width="10.827" height="2.301"/>
		<rect x="232.282" y="88.15" style="opacity:0.75;fill:#575E94;" width="10.526" height="2"/>
		<circle style="fill:#FFFFFF;" cx="237.532" cy="83.234" r="3.15"/>
		<circle style="fill:#FFFFFF;" cx="237.532" cy="83.234" r="3"/>
		<circle style="opacity:0.75;fill:#575E94;" cx="237.532" cy="83.234" r="3.15"/>
		<circle style="opacity:0.75;fill:#575E94;" cx="237.532" cy="83.234" r="3"/>
		<path style="fill:#FFFFFF;" d="M246.132,88.3V78h10.827V88.3H246.132z M255.158,85.417v-1.533h-7.199v1.533H255.158z
			 M255.158,82.417v-1.532h-7.199v1.532H255.158z"/>
		<path style="fill:#FFFFFF;" d="M256.809,78.15h-10.526v10h10.526V78.15z M255.309,85.568h-7.5v-1.834h7.5V85.568z M255.309,82.567
			h-7.5v-1.833h7.5V82.567z"/>
		<rect x="246.132" y="88" style="fill:#231F20;" width="10.827" height="2.301"/>
		<rect x="246.282" y="88.15" style="fill:#231F20;" width="10.526" height="2"/>
		<rect x="246.132" y="88" style="opacity:0.75;fill:#A0BD49;" width="10.827" height="2.301"/>
		<rect x="246.282" y="88.15" style="opacity:0.75;fill:#A0BD49;" width="10.526" height="2"/>
		<path style="fill:#FFFFFF;" d="M260.658,102.3v-8.372H245.75v8.372h-7.092v-8.372H207.75v8.372h-7.882v-8.372h-26.909v8.372h-6.3
			V90h46.071c-0.047-0.28-0.071-0.565-0.071-0.85v-30c0-2.84,2.31-5.15,5.15-5.15h38c2.84,0,5.15,2.31,5.15,5.15v30
			c0,0.284-0.024,0.569-0.071,0.85h6.071V102.3H260.658z M259.55,90c0.074-0.313,0.108-0.585,0.108-0.85v-30
			c0-2.123-1.727-3.85-3.85-3.85h-38c-2.123,0-3.85,1.727-3.85,3.85v30c0,0.266,0.035,0.538,0.11,0.85H259.55z"/>
		<path style="fill:#FFFFFF;" d="M260.707,90.15c0.066-0.323,0.102-0.658,0.102-1v-30c0-2.75-2.25-5-5-5h-38c-2.75,0-5,2.25-5,5v30
			c0,0.342,0.035,0.677,0.102,1h-46.102v12h6v-8.372h27.209v8.372h7.582v-8.372h31.209v8.372h6.791v-8.372h15.209v8.372h6v-12
			H260.707z M213.809,89.15v-30c0-2.206,1.795-4,4-4h38c2.206,0,4,1.794,4,4v30c0,0.348-0.059,0.679-0.142,1h-2.858h-10.526h-3.474
			h-10.526h-4.947h-10.526h-2.857C213.867,89.829,213.809,89.498,213.809,89.15z"/>
		<rect x="233.658" y="62.584" style="fill:#F49600;" width="7.801" height="2.133"/>
		<rect x="233.809" y="62.734" style="fill:#F49600;" width="7.5" height="1.833"/>
		<rect x="233.658" y="65.584" style="fill:#F49600;" width="7.801" height="2.134"/>
		<rect x="233.809" y="65.734" style="fill:#F49600;" width="7.5" height="1.834"/>
		<rect x="247.7" y="62.584" style="fill:#3DBDEE;" width="7.759" height="5.133"/>
		<rect x="247.851" y="62.734" style="fill:#3DBDEE;" width="7.458" height="4.833"/>
		<rect x="247.658" y="80.583" style="fill:#A0BD49;" width="7.801" height="2.134"/>
		<rect x="247.809" y="80.734" style="fill:#A0BD49;" width="7.5" height="1.833"/>
		<rect x="247.658" y="83.583" style="fill:#A0BD49;" width="7.801" height="2.135"/>
		<rect x="247.809" y="83.734" style="fill:#A0BD49;" width="7.5" height="1.834"/>
		<rect x="172.659" y="93.627" style="fill:#D6D6D6;" width="27.509" height="8.673"/>
		<rect x="172.809" y="93.778" style="fill:#D6D6D6;" width="27.209" height="8.372"/>
		<rect x="245.449" y="93.627" style="fill:#D6D6D6;" width="15.51" height="8.673"/>
		<rect x="245.6" y="93.778" style="fill:#D6D6D6;" width="15.209" height="8.372"/>
		<rect x="207.45" y="93.627" style="fill:#D6D6D6;" width="31.509" height="8.673"/>
		<rect x="207.6" y="93.778" style="fill:#D6D6D6;" width="31.209" height="8.372"/>
	</g>
	<g>
		<rect x="410.658" y="90" style="fill:#4F4A4C;" width="60.301" height="74.301"/>
		<rect x="410.809" y="90.15" style="fill:#4F4A4C;" width="60" height="74"/>
		<g>
			
				<rect x="416.052" y="115.353" transform="matrix(-0.7071 0.7071 -0.7071 -0.7071 815.7806 -102.9025)" style="fill:#FEB737;" width="26.3" height="4.299"/>
			
				<rect x="427.202" y="104.502" transform="matrix(0.7071 0.7071 -0.7071 0.7071 208.7972 -269.076)" style="fill:#FEB737;" width="4" height="26"/>
			
				<rect x="448.265" y="104.353" transform="matrix(-0.7071 0.7071 -0.7071 -0.7071 851.9933 -117.9023)" style="fill:#E86A78;" width="4.299" height="26.3"/>
			
				<rect x="448.415" y="104.502" transform="matrix(-0.7071 0.7071 -0.7071 -0.7071 851.9933 -117.9023)" style="fill:#E86A78;" width="4" height="26"/>
			
				<rect x="437.659" y="104.746" transform="matrix(-0.707 0.7072 -0.7072 -0.707 826.3493 -128.5709)" style="fill:#E1512E;" width="4.3" height="4.3"/>
			
				<rect x="437.809" y="104.896" transform="matrix(-0.7071 -0.7071 0.7071 -0.7071 675.2134 493.4745)" style="fill:#E1512E;" width="4" height="4"/>
			
				<rect x="427.053" y="125.565" transform="matrix(-0.7071 0.7071 -0.7071 -0.7071 830.7804 -66.6898)" style="fill:#13A797;" width="4.299" height="26.3"/>
			
				<rect x="427.202" y="125.715" transform="matrix(0.7071 -0.7071 0.7071 0.7071 27.6239 344.1205)" style="fill:#13A797;" width="4" height="26"/>
			
				<rect x="416.446" y="125.959" transform="matrix(-0.7071 0.7071 -0.7071 -0.7071 805.1742 -77.2963)" style="fill:#0B8B5B;" width="4.299" height="4.299"/>
			
				<rect x="416.596" y="126.109" transform="matrix(0.7071 -0.7071 0.7071 0.7071 32.0172 333.5141)" style="fill:#0B8B5B;" width="4" height="4"/>
			
				<rect x="437.265" y="136.566" transform="matrix(-0.7071 0.7071 -0.7071 -0.7071 866.9931 -81.6896)" style="fill:#B2ABA5;" width="26.3" height="4.299"/>
			
				<rect x="448.415" y="125.715" transform="matrix(-0.7071 -0.7071 0.7071 -0.7071 670.82 555.2934)" style="fill:#B2ABA5;" width="4" height="26"/>
			
				<rect x="458.872" y="125.959" transform="matrix(-0.7071 0.7071 -0.7071 -0.7071 877.5996 -107.2959)" style="fill:#9C3B46;" width="4.299" height="4.299"/>
			
				<rect x="459.022" y="126.109" transform="matrix(-0.7071 0.7071 -0.7071 -0.7071 877.5996 -107.2959)" style="fill:#9C3B46;" width="4" height="4"/>
			
				<rect x="437.659" y="147.172" transform="matrix(-0.7071 0.7071 -0.7071 -0.7071 856.3867 -56.0834)" style="fill:#007F6A;" width="4.299" height="4.299"/>
			
				<rect x="437.809" y="147.322" transform="matrix(-0.7071 -0.7071 0.7071 -0.7071 645.2138 565.8998)" style="fill:#007F6A;" width="4" height="4"/>
		</g>
		<rect x="406.908" y="90" style="fill:#3F3C3D;" width="4.051" height="74.301"/>
		<rect x="407.059" y="90.15" style="fill:#3F3C3D;" width="3.75" height="74"/>
		<rect x="430.658" y="122" style="fill:#FFFFFF;" width="18.301" height="2.301"/>
		<rect x="430.809" y="122.15" style="fill:#FFFFFF;" width="18" height="2"/>
		<rect x="434.658" y="126" style="fill:#FFFFFF;" width="14.301" height="2.301"/>
		<rect x="434.809" y="126.15" style="fill:#FFFFFF;" width="14" height="2"/>
		<rect x="430.658" y="126" style="fill:#E66470;" width="2.301" height="2.301"/>
		<rect x="430.809" y="126.15" style="fill:#E66470;" width="2" height="2"/>
		<rect x="430.658" y="130" style="fill:#FFFFFF;" width="18.301" height="1.301"/>
		<rect x="430.809" y="130.15" style="fill:#FFFFFF;" width="18" height="1"/>
		<rect x="430.658" y="132" style="fill:#FFFFFF;" width="18.301" height="1.301"/>
		<rect x="430.809" y="132.15" style="fill:#FFFFFF;" width="18" height="1"/>
	</g>
	<g>
		<g>
			<rect x="385.658" y="138" style="fill:#FFFFFF;" width="34.301" height="6.301"/>
			<rect x="384.809" y="138.15" style="fill:#FFFFFF;" width="34" height="6"/>
			<rect x="385.658" y="138" style="fill:#EAEAEA;" width="17.301" height="6.301"/>
			<rect x="384.809" y="138.15" style="fill:#EAEAEA;" width="18" height="6"/>
			<rect x="370.658" y="162" style="fill:#D66350;" width="76.301" height="2.301"/>
			<rect x="370.809" y="162.15" style="fill:#D66350;" width="76" height="2"/>
			<rect x="370.658" y="154" style="fill:#D66350;" width="76.301" height="2.301"/>
			<rect x="370.809" y="154.15" style="fill:#D66350;" width="76" height="2"/>
			<rect x="370.658" y="156" style="fill:#FFFFFF;" width="72.819" height="6.301"/>
			<rect x="370.809" y="156.15" style="fill:#FFFFFF;" width="72.519" height="6"/>
			<rect x="370.658" y="156" style="fill:#EAEAEA;" width="37.301" height="6.301"/>
			<rect x="370.809" y="156.15" style="fill:#EAEAEA;" width="37" height="6"/>
			<rect x="370.658" y="154" style="fill:#D66350;" width="2.301" height="10.301"/>
			<rect x="370.809" y="154.15" style="fill:#D66350;" width="2" height="10"/>
			<rect x="374.658" y="146" style="fill:#D8BE50;" width="52.301" height="2.301"/>
			<rect x="374.809" y="146.15" style="fill:#D8BE50;" width="52" height="2"/>
			<rect x="376.14" y="148" style="fill:#FFFFFF;" width="46.819" height="4.301"/>
			<rect x="376.29" y="148.15" style="fill:#FFFFFF;" width="46.519" height="4"/>
			<rect x="374.658" y="148" style="fill:#EAEAEA;" width="25.301" height="4.301"/>
			<rect x="374.809" y="148.15" style="fill:#EAEAEA;" width="25" height="4"/>
			<rect x="374.658" y="152" style="fill:#D8BE50;" width="52.301" height="2.301"/>
			<rect x="374.809" y="152.15" style="fill:#D8BE50;" width="52" height="2"/>
			<rect x="374.658" y="146" style="fill:#D8BE50;" width="2.301" height="8.301"/>
			<rect x="374.809" y="146.15" style="fill:#D8BE50;" width="2" height="8"/>
			<rect x="384.658" y="136" style="fill:#575E94;" width="38.301" height="2.301"/>
			<rect x="384.809" y="136.15" style="fill:#575E94;" width="38" height="2"/>
			<rect x="384.658" y="144" style="fill:#575E94;" width="38.301" height="2.301"/>
			<rect x="384.809" y="144.15" style="fill:#575E94;" width="38" height="2"/>
		</g>
		<rect x="384.658" y="138" style="fill:#575E94;" width="2.301" height="6.301"/>
		<rect x="384.809" y="138.15" style="fill:#575E94;" width="2" height="6"/>
	</g>
	<g>
		<g>
			<path style="fill:#423F40;" d="M353.361,164.3c-6.627-3.282-10.703-9.848-10.703-17.15c0-10.56,8.591-19.15,19.15-19.15
				s19.15,8.591,19.15,19.15c0,7.303-4.076,13.868-10.637,17.135l-0.031,0.016H353.361z"/>
			<path style="fill:#423F40;" d="M380.809,147.15c0-10.493-8.506-19-19-19c-10.493,0-19,8.507-19,19
				c0,7.454,4.304,13.889,10.553,17h16.895C376.506,161.039,380.809,154.604,380.809,147.15z"/>
		</g>
		<path style="fill:#474646;" d="M361.809,162.3c-9.456,0-17.15-7.694-17.15-17.15s7.694-17.15,17.15-17.15s17.15,7.694,17.15,17.15
			S371.265,162.3,361.809,162.3z"/>
		<circle style="fill:#474646;" cx="361.809" cy="145.15" r="17"/>
		<path style="fill:#FFFFFF;" d="M363.809,152.3c-5.045,0-9.15-4.105-9.15-9.15s4.105-9.15,9.15-9.15s9.15,4.105,9.15,9.15
			S368.854,152.3,363.809,152.3z"/>
		<circle style="fill:#FFFFFF;" cx="363.809" cy="143.15" r="9"/>
		<g>
			<path style="fill:#474646;" d="M364.567,148.419c-0.691,0-1.316-0.149-1.855-0.444c-0.799-0.437-1.3-1.189-1.486-2.239
				c-0.111-0.628-0.027-1.223,0.25-1.768c0.23-0.451,0.57-0.842,1.013-1.163c-0.441-0.147-0.822-0.379-1.135-0.69
				c-0.39-0.39-0.64-0.881-0.741-1.459c-0.18-1.002,0.004-1.849,0.545-2.515c0.536-0.657,1.331-1.084,2.36-1.269
				c0.302-0.054,0.596-0.081,0.874-0.081c0.659,0,1.258,0.153,1.777,0.455c0.749,0.436,1.22,1.165,1.398,2.17
				c0.103,0.576,0.035,1.122-0.199,1.622c-0.19,0.405-0.469,0.757-0.829,1.05c0.521,0.147,0.973,0.395,1.348,0.737
				c0.455,0.416,0.742,0.944,0.853,1.569c0.188,1.05-0.021,1.93-0.62,2.616c-0.592,0.676-1.447,1.118-2.544,1.313
				C365.225,148.387,364.886,148.419,364.567,148.419z M365.037,143.294c-0.119,0-0.241,0.012-0.368,0.034
				c-0.499,0.09-0.864,0.307-1.114,0.664c-0.25,0.358-0.328,0.775-0.24,1.274c0.09,0.507,0.305,0.866,0.657,1.1
				c0.25,0.165,0.545,0.249,0.876,0.249c0.133,0,0.271-0.014,0.416-0.039c0.488-0.086,0.864-0.303,1.118-0.645
				c0.253-0.343,0.333-0.754,0.244-1.256c-0.089-0.493-0.312-0.855-0.679-1.105C365.678,143.388,365.371,143.294,365.037,143.294z
				 M364.12,138.594c-0.094,0-0.191,0.009-0.291,0.026c-0.427,0.076-0.729,0.264-0.927,0.573c-0.198,0.313-0.255,0.691-0.173,1.154
				c0.082,0.458,0.268,0.789,0.566,1.013c0.22,0.166,0.469,0.246,0.761,0.246c0.101,0,0.206-0.01,0.315-0.029
				c0.418-0.073,0.719-0.261,0.92-0.573c0.201-0.31,0.262-0.694,0.182-1.146c-0.078-0.436-0.271-0.773-0.576-1.005
				C364.665,138.679,364.411,138.594,364.12,138.594z"/>
			<path style="fill:#474646;" d="M367.42,139.443c0.097,0.546,0.035,1.057-0.188,1.532c-0.223,0.474-0.57,0.87-1.043,1.184
				c0.633,0.124,1.164,0.383,1.596,0.777s0.701,0.889,0.807,1.485c0.18,1.008-0.016,1.838-0.586,2.491
				c-0.57,0.652-1.389,1.074-2.457,1.265c-1.082,0.193-2.004,0.082-2.765-0.334c-0.761-0.415-1.231-1.126-1.411-2.134
				c-0.105-0.597-0.027-1.154,0.236-1.673c0.264-0.518,0.676-0.948,1.234-1.288c-0.555-0.127-1.017-0.374-1.385-0.74
				c-0.367-0.367-0.602-0.826-0.699-1.379c-0.172-0.962,0-1.761,0.514-2.394c0.516-0.632,1.272-1.037,2.271-1.216
				c0.988-0.176,1.839-0.057,2.55,0.356C366.807,137.791,367.248,138.479,367.42,139.443z M366.773,144.65
				c-0.096-0.531-0.342-0.931-0.742-1.203c-0.399-0.271-0.862-0.359-1.389-0.266c-0.536,0.096-0.939,0.338-1.211,0.726
				c-0.271,0.39-0.359,0.851-0.265,1.387c0.097,0.545,0.337,0.943,0.722,1.198c0.383,0.253,0.851,0.331,1.401,0.232
				c0.532-0.094,0.936-0.33,1.212-0.703C366.779,145.646,366.869,145.19,366.773,144.65z M365.621,139.833
				c-0.085-0.477-0.297-0.843-0.633-1.098c-0.339-0.256-0.733-0.343-1.186-0.262c-0.467,0.083-0.809,0.297-1.027,0.641
				c-0.217,0.344-0.281,0.764-0.193,1.261c0.088,0.492,0.295,0.86,0.624,1.106c0.328,0.247,0.726,0.327,1.192,0.244
				c0.457-0.08,0.797-0.294,1.02-0.64C365.642,140.742,365.709,140.324,365.621,139.833z"/>
		</g>
	</g>
	<g>
		<polygon style="fill:#FEB737;" points="61.429,134.3 58.412,123.039 60.633,122.443 63.81,134.3 		"/>
		<polygon style="fill:#FEB737;" points="63.615,134.15 60.527,122.626 58.595,123.145 61.544,134.15 62.15,134.15 		"/>
		<polygon style="fill:#EDA83A;" points="63.5,134.3 60.343,122.52 62.564,121.925 65.88,134.3 		"/>
		<polygon style="fill:#EDA83A;" points="63.615,134.15 65.685,134.15 62.458,122.109 60.527,122.626 		"/>
		
			<rect x="58.118" y="120.511" transform="matrix(-0.9659 0.2589 -0.2589 -0.9659 149.983 223.5675)" style="fill:#EAEAEA;" width="4.299" height="2.3"/>
		<polygon style="fill:#EAEAEA;" points="62.458,122.109 61.941,120.177 60.009,120.695 58.078,121.213 58.595,123.145 
			60.527,122.626 		"/>
		<path style="fill:#D16273;" d="M58.791,116.725l0.145-0.038c0.183-0.05,0.371-0.074,0.558-0.074c0.97,0,1.824,0.655,2.076,1.594
			l0.556,2.077l-2.221,0.595L58.791,116.725z"/>
		<path style="fill:#D16273;" d="M61.941,120.177l-0.518-1.932c-0.286-1.066-1.383-1.7-2.449-1.414l1.035,3.863L61.941,120.177z"/>
		<path style="fill:#E86A78;" d="M57.415,119.321c-0.307-1.146,0.375-2.327,1.52-2.634l0.145-0.039l1.113,4.153l-2.221,0.596
			L57.415,119.321z"/>
		<path style="fill:#E86A78;" d="M58.974,116.832c-1.066,0.286-1.7,1.383-1.414,2.45l0.518,1.932l1.932-0.519L58.974,116.832z"/>
		<polygon style="fill:#FEB737;" points="81.731,134.3 87.008,114.606 89.229,115.202 84.113,134.3 		"/>
		<polygon style="fill:#FEB737;" points="81.927,134.15 83.998,134.15 89.046,115.308 87.114,114.79 		"/>
		<polygon style="fill:#EDA83A;" points="79.661,134.3 85.077,114.088 87.298,114.683 82.042,134.3 		"/>
		<polygon style="fill:#EDA83A;" points="87.114,114.79 85.183,114.272 79.856,134.15 81.927,134.15 		"/>
		
			<rect x="86.223" y="111.674" transform="matrix(-0.2588 0.9659 -0.9659 -0.2588 219.9307 58.8836)" style="fill:#EAEAEA;" width="2.3" height="4.299"/>
		<polygon style="fill:#EAEAEA;" points="85.7,112.34 85.183,114.272 87.114,114.79 89.046,115.308 89.563,113.376 87.632,112.858 
					"/>
		<path style="fill:#D16273;" d="M85.517,112.447l0.556-2.077c0.252-0.938,1.105-1.594,2.076-1.594c0.187,0,0.375,0.024,0.558,0.074
			l0.145,0.038l-1.113,4.153L85.517,112.447z"/>
		<path style="fill:#D16273;" d="M88.667,108.995c-1.066-0.286-2.163,0.348-2.449,1.414L85.7,112.34l1.932,0.518L88.667,108.995z"/>
		<path style="fill:#E86A78;" d="M87.448,112.964l1.113-4.153l0.145,0.039c1.145,0.307,1.827,1.488,1.52,2.634l-0.557,2.076
			L87.448,112.964z"/>
		<path style="fill:#E86A78;" d="M88.667,108.995l-1.035,3.863l1.932,0.519l0.518-1.932
			C90.367,110.377,89.733,109.281,88.667,108.995z"/>
		<polygon style="fill:#FEB737;" points="68.625,134.3 66.62,115.22 68.909,114.982 70.939,134.3 		"/>
		<polygon style="fill:#FEB737;" points="70.773,134.15 68.776,115.147 66.785,115.354 68.761,134.15 		"/>
		<polygon style="fill:#EDA83A;" points="66.615,134.3 64.632,115.43 66.918,115.189 68.927,134.3 		"/>
		<polygon style="fill:#EDA83A;" points="66.785,115.354 64.797,115.564 66.75,134.15 68.761,134.15 		"/>
		<polygon style="fill:#FEE2B2;" points="65.521,112.027 67.332,111.835 69.003,115.271 64.6,115.734 		"/>
		<polygon style="fill:#FEE2B2;" points="67.243,111.996 65.641,112.165 64.797,115.562 68.775,115.144 		"/>
		<polygon style="fill:#4F4A4C;" points="66.165,109.437 67.471,112.123 65.444,112.336 		"/>
		<polygon style="fill:#4F4A4C;" points="66.21,109.875 65.641,112.165 67.243,111.996 		"/>
		<polygon style="fill:#FEB737;" points="75.655,134.3 76.825,127.444 79.092,127.831 77.989,134.3 		"/>
		<polygon style="fill:#FEB737;" points="75.833,134.15 77.862,134.15 78.919,127.954 76.947,127.617 		"/>
		<polygon style="fill:#EDA83A;" points="73.627,134.3 74.854,127.108 77.12,127.494 75.959,134.3 		"/>
		<polygon style="fill:#EDA83A;" points="76.947,127.617 74.976,127.281 73.805,134.15 75.833,134.15 		"/>
		
			<rect x="75.965" y="124.482" transform="matrix(-0.1679 0.9858 -0.9858 -0.1679 214.8978 71.8738)" style="fill:#EAEAEA;" width="2.3" height="4.3"/>
		<polygon style="fill:#EAEAEA;" points="78.919,127.954 79.255,125.983 77.284,125.646 75.312,125.309 74.976,127.281 
			76.947,127.617 		"/>
		<path style="fill:#D16273;" d="M75.139,125.432l0.362-2.119c0.177-1.036,1.068-1.789,2.117-1.789c0.12,0,0.242,0.01,0.364,0.031
			l0.147,0.024l-0.723,4.239L75.139,125.432z"/>
		<path style="fill:#D16273;" d="M77.956,121.703c-1.088-0.186-2.122,0.547-2.308,1.636l-0.336,1.971l1.972,0.337L77.956,121.703z"
			/>
		<path style="fill:#E86A78;" d="M77.111,125.769l0.723-4.239l0.148,0.025c1.168,0.2,1.957,1.313,1.758,2.481l-0.362,2.119
			L77.111,125.769z"/>
		<path style="fill:#E86A78;" d="M79.255,125.983l0.336-1.972c0.186-1.089-0.547-2.122-1.635-2.309l-0.672,3.943L79.255,125.983z"/>
		<polygon style="fill:#605F60;" points="79.979,164.3 84.019,134 88.321,134 84.281,164.3 		"/>
		<polygon style="fill:#605F60;" points="84.15,164.15 88.15,134.15 84.15,134.15 80.15,164.15 		"/>
		<polygon style="fill:#4F4A4C;" points="66.019,164.3 61.979,134 84.321,134 80.281,164.3 		"/>
		<polygon style="fill:#4F4A4C;" points="79.856,134.15 77.862,134.15 75.833,134.15 73.805,134.15 70.773,134.15 68.761,134.15 
			66.75,134.15 65.685,134.15 63.615,134.15 62.15,134.15 66.15,164.15 80.15,164.15 84.15,134.15 83.998,134.15 81.927,134.15 		
			"/>
		<polygon style="fill:#423F40;" points="62.019,164.3 57.979,134 62.281,134 66.321,164.3 		"/>
		<polygon style="fill:#423F40;" points="62.15,134.15 61.544,134.15 58.15,134.15 62.15,164.15 66.15,164.15 		"/>
	</g>
	<g>
		<rect x="114.659" y="152" style="fill:#4F4A4C;" width="10.3" height="2.301"/>
		<polygon style="fill:#4F4A4C;" points="114.809,152.817 114.809,154.15 116.809,154.15 117.975,154.15 120.809,154.15 
			124.809,154.15 124.809,152.15 114.809,152.15 		"/>
		<rect x="114.659" y="160" style="fill:#4F4A4C;" width="10.3" height="2.301"/>
		<polygon style="fill:#4F4A4C;" points="116.809,160.15 114.809,160.15 114.809,162.15 124.809,162.15 124.809,160.15 
			120.809,160.15 117.975,160.15 		"/>
		<path style="fill:#4F4A4C;" d="M73.809,162.3c-0.344,0-0.69-0.035-1.03-0.104c-2.388-0.485-4.12-2.608-4.12-5.047
			s1.732-4.562,4.12-5.047c0.339-0.068,0.686-0.104,1.03-0.104h37.15v2.301H73.643c-1.48,0-2.684,1.278-2.684,2.85
			s1.204,2.85,2.684,2.85h37.316v2.301H73.809z"/>
		<path style="fill:#4F4A4C;" d="M86.809,152.15h-7h-6c-0.343,0-0.677,0.035-1,0.101c-2.282,0.464-4,2.48-4,4.899
			s1.718,4.436,4,4.899c0.323,0.065,0.657,0.101,1,0.101h6h7h24v-2h-6h-2.834h-1.166h-6h-8h-3.022h-3.978h-6h-0.166
			c-1.566,0-2.834-1.343-2.834-3s1.268-3,2.834-3h0.166h6h3.978h3.022h8h6h1.166h2.834h6v-1.333v-0.667H86.809z"/>
		<rect x="114.659" y="154" style="fill:#FFFFFF;" width="10.3" height="6.301"/>
		<polygon style="fill:#FFFFFF;" points="116.809,154.15 114.809,154.15 114.809,159.817 114.809,160.15 116.809,160.15 
			117.975,160.15 120.809,160.15 120.809,154.15 117.975,154.15 		"/>
		<rect x="94.659" y="154" style="fill:#FFFFFF;" width="16.3" height="6.301"/>
		<polygon style="fill:#FFFFFF;" points="101.975,154.15 100.809,154.15 94.809,154.15 94.809,160.15 100.809,160.15 
			101.975,160.15 104.809,160.15 110.809,160.15 110.809,159.817 110.809,154.15 104.809,154.15 		"/>
		<path style="fill:#EAEAEA;" d="M73.643,160.3c-1.646,0-2.984-1.413-2.984-3.15s1.338-3.15,2.984-3.15h21.316v6.301H73.643z"/>
		<path style="fill:#EAEAEA;" d="M86.809,154.15h-3.022h-3.978h-6h-0.166c-1.566,0-2.834,1.343-2.834,3s1.268,3,2.834,3h0.166h6
			h3.978h3.022h8v-6H86.809z"/>
		<path style="fill:#D66350;" d="M73.809,164.3c-3.942,0-7.15-3.208-7.15-7.15s3.208-7.15,7.15-7.15h36.899
			c0.197-1.148,1.081-2,2.101-2s1.903,0.852,2.101,2h10.049v2.301h-10V162h10v2.301H73.809z M73.809,152.3
			c-0.324,0-0.65,0.032-0.97,0.098c-2.248,0.456-3.88,2.455-3.88,4.752s1.632,4.296,3.88,4.752c0.32,0.065,0.646,0.098,0.97,0.098
			h36.85V152.3H73.809z"/>
		<path style="fill:#D66350;" d="M114.78,150.15c-0.14-1.129-0.964-2-1.971-2s-1.832,0.871-1.971,2H89.809h-3h-13
			c-3.866,0-7,3.134-7,7s3.134,7,7,7h13h3h35v-2h-10v-2v-0.333v-5.667v-1.333v-0.667h10v-2H114.78z M110.809,152.817v1.333v5.667
			v0.333v2h-24h-7h-6c-0.343,0-0.677-0.035-1-0.101c-2.282-0.464-4-2.48-4-4.899s1.718-4.436,4-4.899
			c0.323-0.065,0.657-0.101,1-0.101h6h7h24V152.817z"/>
	</g>
	<g>
		<path style="fill:#4F4A4C;" d="M110.659,164.3v-14.15c0-1.186,0.964-2.15,2.15-2.15s2.15,0.965,2.15,2.15v14.15H110.659z"/>
		<path style="fill:#4F4A4C;" d="M114.809,150.15c0-1.104-0.896-2-2-2s-2,0.896-2,2v14h4V150.15z"/>
	</g>
	<g>
		<g>
			<path style="fill:#FEB737;" d="M8,162.3v-0.15c0-1.186,0.964-2.15,2.15-2.15h42c1.186,0,2.15,0.965,2.15,2.15v0.15H8z"/>
			<path style="fill:#FEB737;" d="M52.15,160.15h-4h-30h-4h-4c-1.104,0-2,0.896-2,2h46C54.15,161.045,53.254,160.15,52.15,160.15z"
				/>
			<rect x="8" y="162" style="fill:#EDA83A;" width="46.3" height="2.301"/>
			<polygon style="fill:#EDA83A;" points="8.15,162.15 8.15,164.15 10.15,164.15 52.15,164.15 54.15,164.15 54.15,162.15 			"/>
			<path style="fill:#FFFFFF;" d="M10.15,154.3C4.553,154.3,0,148.401,0,141.15S4.553,128,10.15,128h4.15v5.301h-4.15
				c-2.294,0-4.85,3.224-4.85,7.85S7.856,149,10.15,149h4.15v5.301H10.15z"/>
			<path style="fill:#FFFFFF;" d="M10.15,149.15c-2.365,0-5-3.285-5-8s2.635-8,5-8h4v-5h-4c-5.523,0-10,5.82-10,13s4.477,13,10,13h4
				v-5H10.15z"/>
			<path style="fill:#FFFFFF;" d="M18,158.3V122h30.3v9.949h-1.7l-2.082,6.154l-1.934-6.154H39.16l3.104,9.204l-3.087,9.972h3.405
				l1.952-6.831l1.975,6.831H48.3v7.176H18z M26.3,144.037c0,0.661,0.025,1.318,0.075,1.952c0.05,0.627,0.149,1.224,0.293,1.774
				c0.144,0.548,0.345,1.059,0.598,1.519c0.249,0.453,0.58,0.848,0.985,1.173c0.407,0.327,0.908,0.586,1.488,0.77
				c0.584,0.186,1.288,0.279,2.091,0.279c0.832,0,1.556-0.099,2.15-0.295c0.593-0.195,1.099-0.467,1.503-0.806
				c0.404-0.339,0.732-0.747,0.975-1.215c0.246-0.475,0.438-0.993,0.572-1.54c0.134-0.555,0.224-1.144,0.267-1.751
				c0.042-0.616,0.064-1.237,0.064-1.86v-12.088h-3.639v11.969c0,1.651-0.044,2.745-0.132,3.25
				c-0.107,0.582-0.309,0.998-0.599,1.237c-0.289,0.237-0.687,0.358-1.183,0.358c-0.458,0-0.821-0.104-1.078-0.309
				c-0.253-0.201-0.44-0.479-0.557-0.827c-0.112-0.332-0.181-0.728-0.203-1.176c-0.021-0.439-0.033-0.912-0.033-1.42v-13.083H26.3
				V144.037z"/>
			<path style="fill:#FFFFFF;" d="M18.15,158.15h30v-6.875h-1.755l-1.861-6.438l-1.84,6.438h-3.722l3.149-10.074l-3.17-9.402h3.744
				l1.829,5.821l1.969-5.821h1.657v-9.648h-30V158.15z M26.15,131.798h3.938v13.233c0,0.505,0.011,0.976,0.033,1.412
				s0.086,0.815,0.195,1.136c0.108,0.321,0.278,0.574,0.508,0.758c0.231,0.184,0.559,0.275,0.985,0.275
				c0.461,0,0.824-0.107,1.087-0.324s0.445-0.599,0.546-1.146c0.086-0.498,0.13-1.573,0.13-3.225v-12.119h3.939v12.238
				c0,0.627-0.022,1.251-0.065,1.871c-0.043,0.621-0.134,1.212-0.271,1.775c-0.137,0.563-0.332,1.087-0.584,1.574
				c-0.252,0.486-0.59,0.907-1.012,1.261s-0.939,0.631-1.553,0.833s-1.345,0.303-2.197,0.303c-0.822,0-1.535-0.096-2.137-0.287
				c-0.603-0.19-1.115-0.456-1.537-0.795s-0.763-0.745-1.022-1.218c-0.26-0.472-0.464-0.989-0.611-1.553
				c-0.148-0.563-0.247-1.163-0.298-1.801c-0.05-0.639-0.076-1.294-0.076-1.964V131.798z"/>
			<rect x="14" y="122" style="fill:#EAEAEA;" width="4.3" height="36.301"/>
			<polygon style="fill:#EAEAEA;" points="18.15,122.15 14.15,122.15 14.15,128.15 14.15,133.15 14.15,149.15 14.15,154.15 
				14.15,158.15 18.15,158.15 			"/>
			<path style="fill:#4F4A4C;" d="M31.831,151.804c-0.834,0-1.568-0.1-2.182-0.295c-0.616-0.194-1.149-0.471-1.585-0.82
				c-0.436-0.351-0.792-0.775-1.06-1.263c-0.265-0.481-0.476-1.016-0.625-1.587c-0.149-0.567-0.251-1.182-0.302-1.827
				c-0.051-0.642-0.076-1.307-0.076-1.976v-12.389h4.238v13.384c0,0.502,0.011,0.971,0.033,1.404
				c0.021,0.422,0.083,0.79,0.187,1.096c0.098,0.292,0.253,0.523,0.459,0.688c0.203,0.161,0.503,0.242,0.892,0.242
				c0.425,0,0.758-0.098,0.992-0.29s0.4-0.548,0.494-1.058c0.084-0.486,0.127-1.563,0.127-3.197v-12.27h4.239v12.389
				c0,0.631-0.022,1.258-0.065,1.882s-0.136,1.229-0.274,1.8c-0.14,0.571-0.34,1.112-0.597,1.608
				c-0.261,0.502-0.614,0.942-1.049,1.307c-0.434,0.363-0.973,0.653-1.602,0.86C33.45,151.7,32.695,151.804,31.831,151.804z"/>
			<path style="fill:#4F4A4C;" d="M26.226,146c0.051,0.638,0.15,1.238,0.298,1.801c0.147,0.563,0.352,1.081,0.611,1.553
				c0.259,0.473,0.601,0.879,1.022,1.218s0.934,0.604,1.537,0.795c0.602,0.191,1.314,0.287,2.137,0.287
				c0.852,0,1.583-0.101,2.197-0.303s1.131-0.479,1.553-0.833s0.759-0.774,1.012-1.261c0.252-0.487,0.447-1.012,0.584-1.574
				c0.137-0.563,0.227-1.154,0.271-1.775c0.043-0.62,0.065-1.244,0.065-1.871v-12.238h-3.939v12.119c0,1.651-0.043,2.727-0.13,3.225
				c-0.101,0.548-0.283,0.93-0.546,1.146s-0.626,0.324-1.087,0.324c-0.426,0-0.754-0.092-0.985-0.275
				c-0.23-0.184-0.4-0.437-0.508-0.758c-0.108-0.32-0.173-0.699-0.195-1.136s-0.033-0.907-0.033-1.412v-13.233H26.15v12.238
				C26.15,144.707,26.175,145.362,26.226,146z"/>
			<polygon style="fill:#FFFFFF;" points="46.857,141.18 48.008,137.681 48.3,137.729 48.3,144.887 48.006,144.931 			"/>
			<polygon style="fill:#FFFFFF;" points="48.15,144.887 48.15,137.729 47.001,141.136 			"/>
			<polygon style="fill:#4F4A4C;" points="46.282,151.425 44.535,145.379 42.808,151.425 38.768,151.425 41.978,141.156 
				38.742,131.648 42.804,131.648 44.529,137.136 46.385,131.648 48.3,131.648 48.3,137.729 47.143,141.184 48.293,144.843 
				48.3,151.425 			"/>
			<polygon style="fill:#4F4A4C;" points="44.523,137.62 42.694,131.798 38.951,131.798 42.121,141.201 38.972,151.275 
				42.694,151.275 44.534,144.836 46.395,151.275 48.15,151.275 48.15,144.887 47.001,141.136 48.15,137.729 48.15,131.798 
				46.493,131.798 			"/>
			<rect x="14" y="158" style="fill:#D8D8D8;" width="34.3" height="2.301"/>
			<polygon style="fill:#D8D8D8;" points="48.15,160.15 48.15,158.15 18.15,158.15 14.15,158.15 14.15,160.15 18.15,160.15 			"/>
		</g>
		<g style="opacity:0.2;">
			<path style="fill:#FFFFFF;" d="M20,130.3V128h0.15c2.123,0,3.85-1.727,3.85-3.85s-1.727-3.85-3.85-3.85
				c-3.391,0-6.15-2.759-6.15-6.15s2.759-6.15,6.15-6.15c2.123,0,3.85-1.727,3.85-3.85s-1.727-3.85-3.85-3.85
				c-3.391,0-6.15-2.759-6.15-6.15S16.759,88,20.15,88h0.15V90.3h-0.15c-2.123,0-3.85,1.727-3.85,3.85S18.027,98,20.15,98
				c3.391,0,6.15,2.759,6.15,6.15s-2.759,6.15-6.15,6.15c-2.123,0-3.85,1.727-3.85,3.85s1.727,3.85,3.85,3.85
				c3.391,0,6.15,2.759,6.15,6.15s-2.759,6.15-6.15,6.15H20z"/>
			<path style="fill:#FFFFFF;" d="M20.15,118.15c-2.206,0-4-1.794-4-4s1.794-4,4-4c3.313,0,6-2.687,6-6s-2.687-6-6-6
				c-2.206,0-4-1.794-4-4s1.794-4,4-4v-2c-3.313,0-6,2.687-6,6s2.687,6,6,6c2.206,0,4,1.794,4,4s-1.794,4-4,4c-3.313,0-6,2.687-6,6
				s2.687,6,6,6c2.206,0,4,1.794,4,4s-1.794,4-4,4v2c3.313,0,6-2.687,6-6S23.463,118.15,20.15,118.15z"/>
			<path style="fill:#FFFFFF;" d="M30,130.3V128h0.15c2.123,0,3.85-1.727,3.85-3.85s-1.727-3.85-3.85-3.85
				c-3.391,0-6.15-2.759-6.15-6.15s2.759-6.15,6.15-6.15c2.123,0,3.85-1.727,3.85-3.85s-1.727-3.85-3.85-3.85
				c-3.391,0-6.15-2.759-6.15-6.15S26.759,88,30.15,88h0.15V90.3h-0.15c-2.123,0-3.85,1.727-3.85,3.85S28.027,98,30.15,98
				c3.391,0,6.15,2.759,6.15,6.15s-2.759,6.15-6.15,6.15c-2.123,0-3.85,1.727-3.85,3.85s1.727,3.85,3.85,3.85
				c3.391,0,6.15,2.759,6.15,6.15s-2.759,6.15-6.15,6.15H30z"/>
			<path style="fill:#FFFFFF;" d="M30.15,118.15c-2.206,0-4-1.794-4-4s1.794-4,4-4c3.313,0,6-2.687,6-6s-2.687-6-6-6
				c-2.206,0-4-1.794-4-4s1.794-4,4-4v-2c-3.313,0-6,2.687-6,6s2.687,6,6,6c2.206,0,4,1.794,4,4s-1.794,4-4,4c-3.313,0-6,2.687-6,6
				s2.687,6,6,6c2.206,0,4,1.794,4,4s-1.794,4-4,4v2c3.313,0,6-2.687,6-6S33.463,118.15,30.15,118.15z"/>
			<path style="fill:#FFFFFF;" d="M40,130.3V128h0.15c2.123,0,3.85-1.727,3.85-3.85s-1.727-3.85-3.85-3.85
				c-3.391,0-6.15-2.759-6.15-6.15s2.759-6.15,6.15-6.15c2.123,0,3.85-1.727,3.85-3.85s-1.727-3.85-3.85-3.85
				c-3.391,0-6.15-2.759-6.15-6.15S36.759,88,40.15,88h0.15V90.3h-0.15c-2.123,0-3.85,1.727-3.85,3.85S38.027,98,40.15,98
				c3.391,0,6.15,2.759,6.15,6.15s-2.759,6.15-6.15,6.15c-2.123,0-3.85,1.727-3.85,3.85s1.727,3.85,3.85,3.85
				c3.391,0,6.15,2.759,6.15,6.15s-2.759,6.15-6.15,6.15H40z"/>
			<path style="fill:#FFFFFF;" d="M40.15,118.15c-2.206,0-4-1.794-4-4s1.794-4,4-4c3.313,0,6-2.687,6-6s-2.687-6-6-6
				c-2.206,0-4-1.794-4-4s1.794-4,4-4v-2c-3.313,0-6,2.687-6,6s2.687,6,6,6c2.206,0,4,1.794,4,4s-1.794,4-4,4c-3.313,0-6,2.687-6,6
				s2.687,6,6,6c2.206,0,4,1.794,4,4s-1.794,4-4,4v2c3.313,0,6-2.687,6-6S43.463,118.15,40.15,118.15z"/>
		</g>
	</g>
</g>
</svg>
