<?xml version="1.0" encoding="UTF-8"?>
<svg width="454px" height="158px" viewBox="0 0 454 158" version="1.1" xmlns="http://www.w3.org/2000/svg" xmlns:xlink="http://www.w3.org/1999/xlink">
    <!-- Generator: Sketch 41.2 (35397) - http://www.bohemiancoding.com/sketch -->
    <title>logo_wordmark</title>
    <desc>Created with Sketch.</desc>
    <defs></defs>
    <g id="Page-1" stroke="none" stroke-width="1" fill="none" fill-rule="evenodd">
        <g id="logo_wordmark" transform="translate(19.000000, 19.000000)">
            <g id="_x33_20-mark-blue" transform="translate(0.977000, 0.417000)">
                <g id="g4" fill="#1CA7D4">
                    <g id="g6">
                        <g id="g8">
                            <path d="M39.397,0.657 L0.023,23.41 L0.023,75.49 L0.023,75.49 C0.023,99.425 19.451,118.853 43.386,118.853 C51.29,118.853 58.751,116.711 65.104,113.017 L65.104,113.017 L97.091,94.549 C109.649,87.974 118.292,74.825 118.292,59.607 L118.292,5.163 L118.292,5.163 L118.292,5.163 L110.388,0.583 L78.844,18.756 L78.844,18.756 L78.844,18.756 L78.844,75.416 C78.844,77.854 78.622,80.218 78.105,82.582 C77.662,84.872 76.923,87.088 76.037,89.231 C75.815,89.748 75.52,90.339 75.298,90.856 C74.338,90.782 73.377,90.634 72.491,90.413 C70.496,89.97 68.502,89.379 66.581,88.566 C64.734,87.753 62.887,86.793 61.262,85.685 C59.563,84.577 58.012,83.247 56.608,81.844 C55.204,80.44 53.875,78.815 52.767,77.19 C51.659,75.491 50.625,73.718 49.886,71.871 C49.073,69.95 48.482,67.956 48.039,65.961 C47.596,63.893 47.374,61.75 47.374,59.608 L47.374,59.608 L47.374,5.164 L39.397,0.657 L39.397,0.657 Z M57.127,108.216 C54.985,109.102 52.769,109.841 50.478,110.284 C48.114,110.727 45.75,111.023 43.312,111.023 C40.874,111.023 38.51,110.801 36.146,110.284 C33.856,109.841 31.64,109.102 29.497,108.216 C27.429,107.33 25.36,106.221 23.513,104.966 C21.666,103.71 19.893,102.233 18.268,100.608 C16.643,98.983 15.239,97.21 13.91,95.363 C12.654,93.442 11.546,91.448 10.66,89.379 C9.774,87.237 9.035,85.021 8.592,82.73 C8.149,80.366 7.853,78.002 7.853,75.564 L7.853,27.99 L39.397,9.817 L39.397,59.681 L39.397,59.681 C39.397,78.666 52.768,94.475 70.645,98.242 C69.98,99.055 69.241,99.867 68.429,100.68 C66.804,102.305 65.031,103.709 63.184,105.038 C61.264,106.221 59.269,107.329 57.127,108.216 L57.127,108.216 Z M109.724,65.961 C109.281,67.956 108.69,69.95 107.877,71.871 C107.064,73.718 106.104,75.565 104.996,77.19 C103.888,78.889 102.558,80.44 101.155,81.844 C99.751,83.248 98.126,84.577 96.501,85.685 C94.802,86.793 93.029,87.827 91.182,88.566 C89.261,89.379 87.267,89.97 85.272,90.413 C84.829,90.487 84.459,90.561 84.016,90.635 C85.789,85.907 86.749,80.81 86.749,75.417 L86.749,75.417 L86.749,23.262 L86.749,23.262 L110.388,9.596 L110.388,59.46 C110.315,61.75 110.093,63.892 109.724,65.961 L109.724,65.961 Z" id="path10"></path>
                        </g>
                    </g>
                </g>
                <g id="wordmark_13_" transform="translate(177.000000, 82.000000)" fill="#FFFFFF">
                    <g id="g13">
                        <path d="M21.371,17.277 C21.371,22.005 17.456,25.846 12.063,25.846 C6.67,25.846 2.903,22.005 2.903,17.277 L2.903,0.36 L0.096,0.36 L0.096,17.351 C0.096,23.409 4.824,28.358 12.137,28.358 C19.45,28.358 24.252,23.409 24.252,17.351 L24.252,0.36 L21.445,0.36 L21.371,17.277 L21.371,17.277 Z M51.585,0.36 L42.646,0.36 L42.646,28.062 L51.511,28.062 C59.785,28.062 65.325,22.965 65.325,14.174 C65.399,5.531 59.858,0.36 51.585,0.36 Z M51.289,25.551 L45.453,25.551 L45.453,2.872 L51.289,2.872 C58.011,2.872 62.518,6.861 62.518,14.174 C62.592,21.488 58.085,25.551 51.289,25.551 Z M130.628,25.92 C124.127,25.92 119.473,20.601 119.473,14.027 C119.473,7.526 124.127,2.577 130.554,2.577 C135.725,2.577 138.902,5.606 138.902,5.606 L140.379,3.611 C140.379,3.611 137.055,0.065 130.48,0.065 C122.65,0.065 116.666,6.123 116.666,14.101 C116.666,22.079 122.502,28.506 130.628,28.506 C137.424,28.506 141.118,24.221 141.118,24.221 L139.567,22.3 C139.567,22.226 136.169,25.92 130.628,25.92 L130.628,25.92 Z M159.069,28.062 L161.876,28.062 L161.876,0.36 L159.069,0.36 L159.069,28.062 Z M178.276,2.872 L188.249,2.872 L188.249,28.063 L191.056,28.063 L191.056,2.872 L201.029,2.872 L201.029,0.36 L178.35,0.36 L178.35,2.872 L178.276,2.872 L178.276,2.872 Z M233.976,0.36 L225.185,13.066 L225.111,13.066 L216.246,0.36 L213.069,0.36 L223.707,16.095 L223.707,27.988 L226.514,27.988 L226.514,16.095 L237.004,0.36 L233.976,0.36 L233.976,0.36 Z M89.407,0.36 L78.178,28.062 L81.133,28.062 L84.088,20.675 L96.572,18.089 L100.561,27.988 L103.516,27.988 L92.287,0.286 L89.406,0.286 L89.406,0.36 L89.407,0.36 Z M85.418,17.572 L90.885,4.127 L90.959,4.127 L95.613,15.429 L85.418,17.572 Z" id="path15"></path>
                    </g>
                </g>
                <path d="M177.31699,63.079 L413.70901,63.079" id="line17" stroke="#FFFFFF"></path>
                <g id="g19" transform="translate(177.000000, 8.000000)" fill="#FFFFFF">
                    <path d="M13.245,2.039 C12.063,5.216 10.659,8.318 9.034,11.273 L9.034,38.236 L6.079,38.236 L6.079,15.927 C4.971,17.478 3.863,18.882 2.681,20.138 L0.982,17.183 C4.749,13.268 8.295,7.284 10.438,1.153 L13.245,2.039 L13.245,2.039 Z M23.439,13.342 C22.7,23.315 20.484,32.549 13.097,37.942 L10.881,35.726 C17.751,30.924 19.82,22.429 20.484,13.343 L11.176,13.343 L11.176,10.388 L20.632,10.388 C20.78,7.359 20.78,4.552 20.78,1.523 L23.735,1.523 C23.735,4.552 23.661,7.359 23.513,10.388 L37.623,10.388 L37.623,13.343 L23.439,13.343 L23.439,13.342 Z M33.929,34.617 C35.111,34.617 35.037,33.657 35.185,28.338 C35.998,28.781 37.401,29.298 38.14,29.668 C37.845,35.726 37.18,37.351 34.225,37.351 L29.497,37.351 C26.32,37.351 25.508,36.391 25.508,33.066 L25.508,17.109 L28.463,17.109 L28.463,33.065 C28.463,34.247 28.685,34.542 29.867,34.542 L33.93,34.542 L33.93,34.617 L33.929,34.617 Z M33.043,9.648 C31.935,7.949 29.571,5.659 27.576,3.738 L30.088,2.039 C32.009,3.812 34.373,6.324 35.555,7.949 L33.043,9.648 Z" id="path21"></path>
                    <path d="M75.963,30.628 C76.776,31.145 77.81,31.958 79.14,32.844 C81.799,34.617 85.124,34.839 89.778,34.839 C94.58,34.839 100.342,34.47 104.183,34.026 C103.961,34.912 103.592,36.094 103.297,36.981 C100.638,37.203 93.324,37.72 89.704,37.72 C84.533,37.72 81.209,37.203 78.402,35.356 C76.777,34.248 75.447,32.77 74.561,32.77 C73.231,32.77 71.237,35.282 69.094,38.237 L67.026,35.504 C69.168,32.992 71.237,31.146 73.01,30.481 L73.01,19.768 L67.543,19.768 L67.543,16.813 L75.964,16.813 L75.963,30.628 L75.963,30.628 L75.963,30.628 Z M73.82,11.052 C72.934,8.91 70.791,5.659 68.871,3.222 L71.457,1.966 C73.452,4.256 75.594,7.506 76.554,9.575 L73.82,11.052 Z M100.784,30.258 C98.568,27.008 94.283,22.132 90.294,17.995 C88.743,23.388 86.157,28.116 80.617,31.07 L78.549,28.558 C85.419,25.086 87.783,19.25 88.67,12.158 L78.623,12.158 L78.623,9.203 L88.965,9.203 C89.187,6.691 89.261,3.958 89.334,1.225 L92.289,1.225 C92.215,3.884 92.141,6.692 91.92,9.203 L103.37,9.203 L103.37,12.158 L91.624,12.158 C91.55,13.118 91.328,13.857 91.181,14.817 C95.613,19.175 100.858,24.864 103.37,28.557 L100.784,30.258 L100.784,30.258 Z" id="path23"></path>
                    <path d="M162.689,15.927 C160.103,18.291 156.631,20.581 153.012,22.206 L153.012,23.905 L169.412,23.905 L169.412,26.86 L153.012,26.86 L153.012,34.395 C153.012,36.242 152.495,37.054 151.017,37.498 C149.54,38.015 147.397,38.163 143.704,38.163 C143.408,37.277 143.113,36.168 142.891,35.208 C145.994,35.356 148.21,35.208 149.022,35.134 C149.908,35.06 150.056,34.912 150.056,34.321 L150.056,26.786 L133.656,26.786 L133.656,23.831 L150.056,23.831 L150.056,20.876 C152.42,19.99 154.784,18.955 156.852,17.552 L140.305,17.552 L140.305,14.597 L160.251,14.597 L162.689,15.927 Z M137.424,15.927 L134.469,15.927 L134.469,7.949 L141.191,7.949 C140.452,6.398 139.123,4.255 137.793,2.704 L140.305,1.448 C141.782,3.147 143.408,5.511 144.072,7.062 L142.447,7.948 L151.312,7.948 C150.721,6.249 149.465,3.885 148.209,2.038 L150.795,0.782 C152.199,2.703 153.676,5.362 154.193,7.061 L152.125,7.947 L158.774,7.947 C160.251,6.1 161.951,3.293 162.837,1.372 L165.57,2.48 C164.388,4.327 163.206,6.321 161.95,7.947 L168.451,7.947 L168.451,15.925 L165.496,15.925 L165.496,10.902 L137.277,10.902 L137.277,15.925 L137.424,15.925 L137.424,15.927 Z" id="path25"></path>
                    <path d="M211.297,28.116 C207.456,29.741 203.467,31.514 200.29,32.77 L199.256,29.815 C200.586,29.372 202.137,28.707 203.91,28.042 L203.91,13.785 L200.143,13.785 L200.143,10.83 L203.91,10.83 L203.91,1.522 L206.865,1.522 L206.865,10.83 L210.632,10.83 L210.632,13.785 L206.865,13.785 L206.865,27.008 L210.706,25.604 L211.297,28.116 L211.297,28.116 Z M235.305,15.041 C233.975,20.286 232.128,24.792 229.691,28.634 C230.651,32.549 231.833,34.765 233.237,34.765 C233.976,34.765 234.493,33.14 234.641,28.412 C235.527,28.929 236.045,29.298 236.709,29.668 C236.266,35.726 235.453,37.646 232.794,37.646 C230.504,37.646 228.805,35.282 227.549,31.441 C225.628,33.953 223.264,35.873 220.679,37.646 C220.31,37.055 219.202,35.947 218.537,35.578 C221.713,33.657 224.447,31.22 226.589,28.117 C225.555,23.315 224.89,16.888 224.668,9.871 L215.138,9.871 L215.138,15.338 L223.116,15.338 L223.116,16.52 C222.894,25.754 222.82,29.004 222.008,30.039 C221.491,30.778 220.604,31.073 219.644,31.147 C218.905,31.221 217.428,31.221 216.024,31.147 C215.95,30.334 215.728,29.3 215.507,28.488 C216.911,28.636 217.871,28.71 218.388,28.71 C218.905,28.71 219.127,28.636 219.422,28.267 C219.865,27.676 220.013,25.017 220.161,17.703 L215.285,17.703 L215.285,19.55 C215.285,25.238 214.62,32.921 210.262,37.944 C209.819,37.353 208.563,36.393 207.898,36.023 C211.961,31.369 212.33,24.721 212.33,19.476 L212.33,6.767 L224.519,6.767 C224.445,4.772 224.519,2.999 224.519,0.857 L227.474,0.857 C227.474,2.999 227.4,4.772 227.474,6.767 L232.941,6.767 C231.981,5.437 230.06,3.443 228.361,2.113 L230.429,0.857 C232.202,2.187 234.123,4.107 235.083,5.511 L233.088,6.767 L235.895,6.767 L235.895,9.722 L227.547,9.722 C227.769,15.336 228.212,20.36 228.877,24.349 C230.502,21.32 231.684,18.07 232.571,14.302 L235.305,15.041 L235.305,15.041 Z" id="path27"></path>
                </g>
            </g>
        </g>
    </g>
</svg>